<svg width="32" height="32" viewBox="0 0 32 32" fill="#fff" xmlns="http://www.w3.org/2000/svg"><path d="M17.421 2.474C18.601 1.086 20.573.068 22.217 0a.263.263 0 01.27.234c.19 1.748-.44 3.7-1.687 5.221-1.184 1.44-2.919 2.336-4.526 2.336a4.18 4.18 0 01-.337-.014.261.261 0 01-.239-.227c-.258-1.962.721-3.908 1.723-5.076z" fill="inherit"/><path d="M6.336 27.902c-2.974-4.32-4.684-11.444-1.994-16.139 1.414-2.474 3.98-4.037 6.695-4.077h.082c1.168 0 2.271.44 3.245.828.727.29 1.356.541 1.84.541.431 0 1.056-.247 1.78-.534 1.048-.416 2.352-.933 3.714-.933.175 0 .348.008.517.025 1.16.05 4.04.467 5.918 3.233a.264.264 0 01-.074.368l-.025.016c-.546.34-3.268 2.214-3.233 5.754.037 4.356 3.62 5.955 4.028 6.123a.535.535 0 00.019.008c.121.056.18.195.139.322l-.01.028a17.653 17.653 0 01-2.19 4.513c-1.256 1.845-2.68 3.937-4.999 3.98-1.081.02-1.814-.298-2.524-.607l-.006-.003c-.723-.314-1.47-.64-2.64-.64-1.232 0-2.017.337-2.775.662-.676.29-1.376.589-2.342.628l-.118.002c-2.059 0-3.562-1.939-5.047-4.098z" fill="inherit"/></svg>
